<?xml version="1.0" encoding="utf-8"?>
<!-- Generator: Adobe Illustrator 25.0.1, SVG Export Plug-In . SVG Version: 6.00 Build 0)  -->
<svg version="1.1" xmlns="http://www.w3.org/2000/svg" xmlns:xlink="http://www.w3.org/1999/xlink" x="0px" y="0px"
	 viewBox="0 0 114 14" style="enable-background:new 0 0 114 14;" xml:space="preserve">
<style type="text/css">
	.st0{fill:#008893;}
	.st1{fill:#EC1C24;}
	.st2{fill:#7E4E94;}
	.st3{fill:#FFD600;}
	.st4{fill:#47B549;}
	.st5{fill:#CAC9C9;}
</style>
<path class="st0" d="M113.2,11.3l-3.3-3.6c1.6-1.2,3.1-2.7,2.6-4.8c-0.6-2.5-4.2-2.3-6.1-1.9c-0.5,0.1-0.9,0.6-0.9,1.1
	c0.2,3.2,0.7,6.5-0.1,9.7c-0.4,1.4,1.9,2.1,2.2,0.6c0.3-1.1,0.4-2.2,0.5-3.2c1.2,1.2,2.3,2.5,3.5,3.8
	C112.5,14.1,114.2,12.4,113.2,11.3z M110.2,4.1c-0.4,0.9-1.3,1.5-2.1,2.1c0-1-0.1-2-0.2-3C109,3.1,110.6,3.1,110.2,4.1z"/>
<path class="st1" d="M82.9,2.2c-0.4-2.1-2.6-2.2-4.3-1.6c-2.3,0.8-3.4,2.5-4.2,4.7c-0.8,2.1-0.5,4.6,1.3,6.2c1.7,1.5,4.2,1.5,6.2,1
	c1.5-0.3,0.9-2.7-0.6-2.3c-2.5,0.6-5.3-0.3-4.8-3.3c0.2-1.1,0.8-2.7,1.8-3.4c0.4-0.2,2.2-1.1,2.3-0.6C80.8,4.4,83.1,3.8,82.9,2.2z"
	/>
<path class="st2" d="M83.9,3.4l-0.2,0.2c-1.9,1-2.5,3.5-1.6,5.5c1.2,2.8,4.3,3.4,6.7,1.9C93.6,8,88.2-0.8,83.9,3.4z M87.6,9
	c-3,2.2-5.1-2.8-2.5-3.5c0.4-0.1,0.7-0.4,0.8-0.7C87.6,4,89.3,7.8,87.6,9z"/>
<path class="st3" d="M101.7,2.1c-0.5-0.1-0.9,0-1.2,0.3c-0.1,0-0.2,0-0.4,0.1c-2.3,0.7-3.9,2.6-3.8,5.1c0,2.1,1.4,4.1,3.5,4.7
	c2.6,0.7,5.2-1.4,5.9-3.8C106.5,5.5,104.4,2.7,101.7,2.1z M103.1,7.7c-0.3,1.2-1.7,2.3-3,1.9c-0.9-0.2-1.3-1.4-1.4-2.2
	c-0.1-1.3,0.7-2.2,2-2.6c0.2-0.1,0.4-0.2,0.5-0.3C102.6,5.1,103.5,6.3,103.1,7.7z"/>
<path class="st4" d="M95.9,8.8c-0.8,0.2-1.7,0.4-2.5,0.5c0-3-0.1-6-1.6-8.7c-0.7-1.3-2.7-0.1-2,1.2c1.5,2.7,1.3,6,1.3,9.1
	c0,0.7,0.7,1.4,1.5,1.1c1.3-0.4,2.6-0.6,4-0.9C98,10.7,97.4,8.5,95.9,8.8z"/>
<g>
	<path class="st5" d="M5.2,8.1H3.9l-0.6,3.7H0.9L2.6,1.3l3.6,0c1.2,0,2.1,0.3,2.7,0.8c0.6,0.6,0.9,1.3,0.8,2.3
		C9.7,5.2,9.5,5.8,9.1,6.3C8.8,6.8,8.2,7.2,7.6,7.5l1.4,4.2v0.1H6.4L5.2,8.1z M4.2,6.2l1.4,0c0.4,0,0.7-0.1,1-0.3s0.5-0.5,0.6-0.8
		c0.1-0.3,0.2-0.7,0.1-1c-0.1-0.5-0.4-0.8-1-0.9l-1.6,0L4.2,6.2z"/>
	<path class="st5" d="M19.7,1.3l-1.1,6.9c-0.2,1.2-0.6,2.1-1.4,2.8s-1.8,1-3,1c-0.7,0-1.4-0.2-1.9-0.5c-0.5-0.3-1-0.8-1.2-1.3
		c-0.3-0.6-0.3-1.2-0.3-2l1.1-6.9h2.4l-1.1,6.9c0,0.2,0,0.5,0,0.7c0,0.4,0.1,0.6,0.3,0.8c0.2,0.2,0.5,0.3,0.8,0.3
		c1,0,1.7-0.6,1.9-1.9l1.1-6.9H19.7z"/>
	<path class="st5" d="M25.1,9c0.1-0.5-0.2-1-0.9-1.3l-1.2-0.5c-1.6-0.8-2.4-1.8-2.3-3.1c0-0.6,0.2-1.1,0.6-1.6
		c0.4-0.5,0.9-0.8,1.5-1.1s1.3-0.4,2.1-0.4c1,0,1.8,0.3,2.4,0.9c0.6,0.6,0.9,1.4,0.9,2.4h-2.4c0-0.4-0.1-0.7-0.3-1
		c-0.2-0.2-0.5-0.4-0.9-0.4c-0.4,0-0.8,0.1-1.1,0.3s-0.5,0.5-0.5,0.8c-0.1,0.5,0.3,0.9,1,1.2C25,5.7,25.5,6,25.9,6.2
		C27,6.9,27.5,7.8,27.5,9c0,0.6-0.2,1.1-0.6,1.6c-0.3,0.5-0.8,0.8-1.4,1.1c-0.6,0.3-1.3,0.4-2,0.4c-0.6,0-1.1-0.1-1.5-0.3
		c-0.5-0.2-0.9-0.4-1.2-0.7c-0.7-0.7-1-1.5-1-2.6l2.4,0c0,0.5,0.1,1,0.3,1.2c0.2,0.3,0.6,0.4,1.2,0.4c0.4,0,0.7-0.1,1-0.3
		C24.8,9.6,25,9.4,25.1,9z"/>
	<path class="st5" d="M37.5,3.3h-3l-1.4,8.6h-2.4l1.5-8.6h-2.9l0.3-2h8.3L37.5,3.3z"/>
	<path class="st5" d="M41.9,5.9l2.6-4.6h2.7l-4.4,6.9l-0.6,3.7h-2.5l0.7-3.9l-2.1-6.7l2.5,0L41.9,5.9z"/>
	<path class="st5" d="M46.1,11.9l1.8-10.6l3.3,0c1.3,0,2.2,0.3,2.9,0.8c0.6,0.5,0.9,1.2,0.9,2.1c-0.1,1.1-0.7,1.9-1.8,2.4
		c0.4,0.1,0.7,0.4,0.9,0.8c0.2,0.4,0.3,0.8,0.3,1.4c-0.1,1-0.5,1.8-1.2,2.4s-1.7,0.8-2.9,0.8H46.1z M49.3,7.4l-0.4,2.5l1.4,0
		c0.5,0,0.8-0.1,1.1-0.3C51.7,9.3,51.9,9,52,8.7c0.1-0.8-0.2-1.2-0.9-1.3L49.3,7.4z M49.6,5.7l1.1,0c1,0,1.6-0.4,1.8-1.2
		c0.1-0.8-0.3-1.2-1.2-1.2l-1.3,0L49.6,5.7z"/>
	<path class="st5" d="M59.5,12c-1.1,0-1.9-0.4-2.6-1.1c-0.6-0.7-1-1.6-1.1-2.8c0-0.6,0-1.3,0.1-2.1c0.1-0.8,0.4-1.5,0.7-2.2
		C57,3.2,57.4,2.7,58,2.2c0.9-0.7,1.9-1.1,3-1.1c0.7,0,1.3,0.2,1.8,0.5C63.3,2,63.8,2.4,64.1,3c0.3,0.6,0.5,1.3,0.5,2
		c0,0.5,0,1.2-0.1,1.8s-0.3,1.3-0.6,2c-0.3,0.6-0.6,1.2-1,1.6c-0.4,0.5-0.9,0.9-1.5,1.1C60.8,11.9,60.2,12,59.5,12z M62.2,5
		c0-1.2-0.5-1.8-1.4-1.9c-0.7,0-1.2,0.2-1.7,0.8c-0.4,0.6-0.7,1.4-0.9,2.6c-0.1,0.7-0.1,1.2-0.1,1.6c0,1.2,0.5,1.9,1.4,1.9
		c0.6,0,1.1-0.2,1.5-0.6c0.4-0.5,0.7-1.1,0.9-2C62.2,6.6,62.2,5.8,62.2,5z"/>
	<path class="st5" d="M69.3,5.9l2.6-4.6h2.7l-4.4,6.9l-0.6,3.7h-2.5l0.7-3.9l-2.1-6.7l2.5,0L69.3,5.9z"/>
</g>
</svg>
